<svg xmlns="http://www.w3.org/2000/svg" viewBox="0 0 1024 1024" role="img" aria-labelledby="title desc">
  <title id="title">Niko social avatar</title>
  <desc id="desc">The full-color Niko mark centered on a deep navy circle.</desc>
  <defs>
    <linearGradient id="niko-gradient" x1="210" y1="490" x2="824" y2="490" gradientUnits="userSpaceOnUse">
      <stop offset="0" stop-color="#78C5DF"/>
      <stop offset="0.42" stop-color="#F3D47F"/>
      <stop offset="0.70" stop-color="#F5AD78"/>
      <stop offset="1" stop-color="#EE9288"/>
    </linearGradient>
  </defs>
  <circle cx="512" cy="512" r="448" fill="#162038"/>
  <path fill="url(#niko-gradient)" transform="translate(88 88) scale(.82)" d="M310 152C256 152 210 197 210 260V724C210 789 240 834 286 834C333 834 356 792 355 730C354 651 350 564 348 494C347 442 365 404 394 404C439 404 468 458 503 523L566 638C624 744 678 834 744 834C792 834 824 788 824 722V234C824 179 793 146 750 146C703 146 674 182 675 238C676 301 678 383 679 446C680 496 664 525 635 525C600 525 568 478 534 425L435 270C389 197 350 152 310 152Z"/>
</svg>
